<?xml version="1.0" encoding="utf-8"?>
<!-- Generator: Adobe Illustrator 16.0.0, SVG Export Plug-In . SVG Version: 6.00 Build 0)  -->
<!DOCTYPE svg PUBLIC "-//W3C//DTD SVG 1.1//EN" "http://www.w3.org/Graphics/SVG/1.1/DTD/svg11.dtd">
<svg version="1.1" id="Layer_1" xmlns="http://www.w3.org/2000/svg" xmlns:xlink="http://www.w3.org/1999/xlink" x="0px" y="0px"
	 width="443.687px" height="365.458px" viewBox="327.55 161.364 443.687 365.458"
	 enable-background="new 327.55 161.364 443.687 365.458" xml:space="preserve">
<g>
	<linearGradient id="SVGID_1_" gradientUnits="userSpaceOnUse" x1="427.2788" y1="288.687" x2="622.2684" y2="396.6812">
		<stop  offset="0.35" style="stop-color:#000000;stop-opacity:0.25"/>
		<stop  offset="0.4185" style="stop-color:#090100;stop-opacity:0.2237"/>
		<stop  offset="0.5303" style="stop-color:#210202;stop-opacity:0.1807"/>
		<stop  offset="0.6714" style="stop-color:#490504;stop-opacity:0.1264"/>
		<stop  offset="0.8357" style="stop-color:#800907;stop-opacity:0.0632"/>
		<stop  offset="1" style="stop-color:#BE0D0A;stop-opacity:0"/>
	</linearGradient>
	<polygon opacity="0.5" fill="url(#SVGID_1_)" points="558.797,163.966 403.559,432.807 500.537,526.822 771.237,374.826 	"/>
	<g>
		<path fill="#F1E5AF" d="M538.869,394.716l-17.036,3.355l-98.682,46.679c-1.492,0.706-2.136,2.503-1.43,3.994l1.069,2.262
			c0.705,1.491,2.503,2.135,3.995,1.429l98.682-46.679L538.869,394.716z"/>
		<polygon fill="#201723" points="534.061,395.664 535.087,397.832 538.869,394.716 		"/>
		
			<rect x="433.174" y="417.982" transform="matrix(-0.904 0.4276 -0.4276 -0.904 1095.7693 598.3816)" fill="#FFA415" width="95.039" height="8.501"/>
		
			<rect x="434.082" y="422.029" transform="matrix(-0.904 0.4276 -0.4276 -0.904 1098.3209 601.6514)" fill="#E05701" width="95.039" height="4.25"/>
		
			<rect x="427.185" y="440.363" transform="matrix(-0.904 0.4275 -0.4275 -0.904 1014.1246 662.1407)" fill="#2E2132" width="11.083" height="9.117"/>
		
			<rect x="428.161" y="444.704" transform="matrix(-0.904 0.4276 -0.4276 -0.904 1016.8892 665.5803)" fill="#201723" width="11.083" height="4.559"/>
		
			<rect x="440.1" y="436.649" transform="matrix(-0.9038 0.428 -0.428 -0.9038 1027.5923 651.4228)" fill="#2E2132" width="0.958" height="9.116"/>
		
			<rect x="441.076" y="440.988" transform="matrix(-0.9042 0.4271 -0.4271 -0.9042 1030.1362 655.4705)" fill="#201723" width="0.958" height="4.56"/>
		<g>
			<path fill="#201723" d="M517.755,383.408l-105.313,49.814c-4.475,2.117-9.867,0.188-11.984-4.288L328.41,276.615
				c-2.116-4.475-0.187-9.867,4.288-11.984l105.313-49.813L517.755,383.408z"/>
			<path fill="#1C141E" d="M413.017,427.419c-3.48,1.646-7.676,0.145-9.32-3.335l-69.483-146.896
				c-1.646-3.479-0.146-7.674,3.335-9.32l99.888-47.248l75.471,159.552L413.017,427.419z"/>
			<path fill="#F5F5F5" d="M412.589,426.515c-2.983,1.411-6.579,0.125-7.989-2.858l-69.482-146.896
				c-1.412-2.982-0.125-6.578,2.857-7.989l98.985-46.82l74.614,157.743L412.589,426.515z"/>
			
				<ellipse transform="matrix(0.9041 -0.4273 0.4273 0.9041 -62.7412 212.4198)" fill="#201723" cx="441.878" cy="245.991" rx="2.667" ry="2.749"/>
			
				<ellipse transform="matrix(0.904 -0.4275 0.4275 0.904 -57.8533 208.6847)" fill="#201723" cx="435.821" cy="233.184" rx="2.667" ry="2.75"/>
			
				<ellipse transform="matrix(0.904 -0.4275 0.4275 0.904 -67.6393 216.3219)" fill="#201723" cx="447.936" cy="258.796" rx="2.667" ry="2.75"/>
			
				<ellipse transform="matrix(0.904 -0.4276 0.4276 0.904 -72.5408 220.2276)" fill="#201723" cx="453.994" cy="271.602" rx="2.667" ry="2.75"/>
			
				<ellipse transform="matrix(0.904 -0.4275 0.4275 0.904 -77.4258 223.9591)" fill="#201723" cx="460.051" cy="284.409" rx="2.667" ry="2.751"/>
			
				<ellipse transform="matrix(0.904 -0.4276 0.4276 0.904 -82.3302 227.8685)" fill="#201723" cx="466.109" cy="297.215" rx="2.667" ry="2.749"/>
			
				<ellipse transform="matrix(0.904 -0.4276 0.4276 0.904 -87.2249 231.6889)" fill="#201723" cx="472.167" cy="310.022" rx="2.667" ry="2.749"/>
			
				<ellipse transform="matrix(0.904 -0.4276 0.4276 0.904 -92.1118 235.4593)" fill="#201723" cx="478.224" cy="322.828" rx="2.667" ry="2.75"/>
			
				<ellipse transform="matrix(0.9039 -0.4278 0.4278 0.9039 -97.0291 239.4203)" fill="#201723" cx="484.281" cy="335.634" rx="2.666" ry="2.749"/>
			
				<ellipse transform="matrix(0.904 -0.4276 0.4276 0.904 -101.8992 243.0982)" fill="#201723" cx="490.339" cy="348.44" rx="2.667" ry="2.75"/>
			
				<ellipse transform="matrix(0.904 -0.4276 0.4276 0.904 -106.8026 246.9696)" fill="#201723" cx="496.395" cy="361.246" rx="2.667" ry="2.751"/>
			
				<ellipse transform="matrix(0.9039 -0.4277 0.4277 0.9039 -111.7069 250.8383)" fill="#201723" cx="502.453" cy="374.052" rx="2.667" ry="2.75"/>
			<line fill="none" stroke="#B5B2AF" stroke-miterlimit="10" x1="344.491" y1="279.425" x2="426.752" y2="240.515"/>
			<line fill="none" stroke="#B5B2AF" stroke-miterlimit="10" x1="347.608" y1="286.016" x2="429.869" y2="247.105"/>
			<line fill="none" stroke="#B5B2AF" stroke-miterlimit="10" x1="350.724" y1="292.605" x2="432.986" y2="253.695"/>
			<line fill="none" stroke="#B5B2AF" stroke-miterlimit="10" x1="353.842" y1="299.195" x2="436.102" y2="260.285"/>
			<line fill="none" stroke="#B5B2AF" stroke-miterlimit="10" x1="356.958" y1="305.785" x2="439.22" y2="266.875"/>
			<line fill="none" stroke="#B5B2AF" stroke-miterlimit="10" x1="360.076" y1="312.375" x2="442.336" y2="273.464"/>
			<line fill="none" stroke="#B5B2AF" stroke-miterlimit="10" x1="363.193" y1="318.964" x2="445.454" y2="280.054"/>
			<line fill="none" stroke="#B5B2AF" stroke-miterlimit="10" x1="366.309" y1="325.553" x2="448.571" y2="286.643"/>
			<line fill="none" stroke="#B5B2AF" stroke-miterlimit="10" x1="369.426" y1="332.143" x2="451.688" y2="293.233"/>
			<line fill="none" stroke="#B5B2AF" stroke-miterlimit="10" x1="372.542" y1="338.732" x2="454.804" y2="299.822"/>
			<line fill="none" stroke="#B5B2AF" stroke-miterlimit="10" x1="375.661" y1="345.322" x2="457.921" y2="306.412"/>
			<line fill="none" stroke="#B5B2AF" stroke-miterlimit="10" x1="378.778" y1="351.913" x2="461.039" y2="313.001"/>
			<line fill="none" stroke="#B5B2AF" stroke-miterlimit="10" x1="381.893" y1="358.501" x2="464.156" y2="319.591"/>
			<line fill="none" stroke="#B5B2AF" stroke-miterlimit="10" x1="385.011" y1="365.091" x2="467.273" y2="326.181"/>
			<line fill="none" stroke="#B5B2AF" stroke-miterlimit="10" x1="388.128" y1="371.681" x2="470.389" y2="332.771"/>
			<line fill="none" stroke="#B5B2AF" stroke-miterlimit="10" x1="391.246" y1="378.271" x2="473.506" y2="339.361"/>
			<line fill="none" stroke="#B5B2AF" stroke-miterlimit="10" x1="394.363" y1="384.861" x2="476.624" y2="345.951"/>
			<line fill="none" stroke="#B5B2AF" stroke-miterlimit="10" x1="397.479" y1="391.451" x2="479.741" y2="352.541"/>
			<line fill="none" stroke="#B5B2AF" stroke-miterlimit="10" x1="400.596" y1="398.04" x2="482.857" y2="359.129"/>
			<line fill="none" stroke="#B5B2AF" stroke-miterlimit="10" x1="403.713" y1="404.629" x2="485.974" y2="365.719"/>
			<line fill="none" stroke="#B5B2AF" stroke-miterlimit="10" x1="406.83" y1="411.22" x2="489.092" y2="372.309"/>
			<line fill="none" stroke="#B5B2AF" stroke-miterlimit="10" x1="409.947" y1="417.809" x2="492.208" y2="378.898"/>
			
				<rect x="447.392" y="255.748" transform="matrix(0.904 -0.4276 0.4276 0.904 -66.1155 218.3272)" fill="#998177" width="11.333" height="1.249"/>
			
				<rect x="441.334" y="242.943" transform="matrix(0.904 -0.4276 0.4276 0.904 -61.2219 214.5076)" fill="#998177" width="11.333" height="1.249"/>
			
				<rect x="435.277" y="230.137" transform="matrix(0.904 -0.4276 0.4276 0.904 -56.3288 210.7064)" fill="#998177" width="11.332" height="1.249"/>
			
				<rect x="465.564" y="294.167" transform="matrix(0.904 -0.4276 0.4276 0.904 -80.8023 229.8288)" fill="#998177" width="11.334" height="1.251"/>
			
				<rect x="459.507" y="281.363" transform="matrix(0.904 -0.4276 0.4276 0.904 -75.9038 225.9665)" fill="#998177" width="11.333" height="1.248"/>
			
				<rect x="453.45" y="268.554" transform="matrix(0.904 -0.4276 0.4276 0.904 -71.0093 222.1468)" fill="#998177" width="11.333" height="1.25"/>
			
				<rect x="483.737" y="332.586" transform="matrix(0.904 -0.4276 0.4276 0.904 -95.4824 241.2658)" fill="#998177" width="11.332" height="1.25"/>
			
				<rect x="477.679" y="319.78" transform="matrix(0.904 -0.4276 0.4276 0.904 -90.5854 237.4249)" fill="#998177" width="11.333" height="1.25"/>
			
				<rect x="471.621" y="306.973" transform="matrix(0.904 -0.4276 0.4276 0.904 -85.6971 233.6491)" fill="#998177" width="11.334" height="1.251"/>
			
				<rect x="501.909" y="371.004" transform="matrix(0.9039 -0.4277 0.4277 0.9039 -110.1742 252.7739)" fill="#998177" width="11.333" height="1.25"/>
			
				<rect x="495.852" y="358.199" transform="matrix(0.904 -0.4276 0.4276 0.904 -105.2712 248.9059)" fill="#998177" width="11.332" height="1.25"/>
			
				<rect x="489.794" y="345.392" transform="matrix(0.904 -0.4276 0.4276 0.904 -100.373 245.0641)" fill="#998177" width="11.333" height="1.25"/>
		</g>
		<g>
			<path fill="#201723" d="M523.632,380.628l105.313-49.813c4.475-2.116,6.404-7.509,4.287-11.984l-72.048-152.319
				c-2.116-4.475-7.51-6.404-11.984-4.287l-105.313,49.813L523.632,380.628z"/>
			<path fill="#1C141E" d="M624.095,327.578c3.479-1.646,4.98-5.841,3.334-9.321l-69.482-146.896
				c-1.646-3.479-5.841-4.98-9.321-3.334l-99.889,47.248l75.469,159.551L624.095,327.578z"/>
			<path fill="#F5F5F5" d="M623.667,326.673c2.983-1.41,4.27-5.006,2.859-7.987l-69.483-146.897
				c-1.411-2.982-5.007-4.27-7.989-2.858l-98.985,46.82l74.614,157.743L623.667,326.673z"/>
			
				<ellipse transform="matrix(-0.904 0.4275 -0.4275 -0.904 986.757 248.0627)" fill="#201723" cx="465.532" cy="234.802" rx="2.667" ry="2.751"/>
			
				<ellipse transform="matrix(-0.904 0.4275 -0.4275 -0.904 969.7486 226.2681)" fill="#201723" cx="459.474" cy="221.995" rx="2.667" ry="2.751"/>
			
				<ellipse transform="matrix(-0.904 0.4276 -0.4276 -0.904 1003.7689 269.7684)" fill="#201723" cx="471.589" cy="247.608" rx="2.667" ry="2.75"/>
			
				<ellipse transform="matrix(-0.904 0.4276 -0.4276 -0.904 1020.7789 291.5612)" fill="#201723" cx="477.647" cy="260.415" rx="2.667" ry="2.749"/>
			
				<ellipse transform="matrix(-0.904 0.4276 -0.4276 -0.904 1037.7888 313.354)" fill="#201723" cx="483.705" cy="273.221" rx="2.667" ry="2.749"/>
			
				<ellipse transform="matrix(-0.904 0.4276 -0.4276 -0.904 1054.7983 335.145)" fill="#201723" cx="489.762" cy="286.027" rx="2.667" ry="2.749"/>
			
				<ellipse transform="matrix(-0.9039 0.4277 -0.4277 -0.9039 1071.8119 356.8929)" fill="#201723" cx="495.819" cy="298.833" rx="2.667" ry="2.75"/>
			
				<ellipse transform="matrix(-0.904 0.4275 -0.4275 -0.904 1088.8073 378.8287)" fill="#201723" cx="501.877" cy="311.641" rx="2.667" ry="2.75"/>
			
				<ellipse transform="matrix(-0.9039 0.4278 -0.4278 -0.9039 1105.8373 400.4266)" fill="#201723" cx="507.934" cy="324.445" rx="2.666" ry="2.75"/>
			
				<ellipse transform="matrix(-0.9041 0.4274 -0.4274 -0.9041 1122.8152 422.4686)" fill="#201723" cx="513.992" cy="337.252" rx="2.666" ry="2.75"/>
			
				<ellipse transform="matrix(-0.9039 0.4277 -0.4277 -0.9039 1139.8517 444.0575)" fill="#201723" cx="520.049" cy="350.058" rx="2.667" ry="2.751"/>
			
				<ellipse transform="matrix(-0.9039 0.4277 -0.4277 -0.9039 1156.8623 465.8495)" fill="#201723" cx="526.106" cy="362.865" rx="2.667" ry="2.751"/>
			<line fill="none" stroke="#B5B2AF" stroke-miterlimit="10" x1="553.158" y1="180.725" x2="470.895" y2="219.636"/>
			<line fill="none" stroke="#B5B2AF" stroke-miterlimit="10" x1="556.274" y1="187.316" x2="474.012" y2="226.226"/>
			<line fill="none" stroke="#B5B2AF" stroke-miterlimit="10" x1="559.39" y1="193.905" x2="477.129" y2="232.815"/>
			<line fill="none" stroke="#B5B2AF" stroke-miterlimit="10" x1="562.508" y1="200.495" x2="480.246" y2="239.405"/>
			<line fill="none" stroke="#B5B2AF" stroke-miterlimit="10" x1="565.625" y1="207.084" x2="483.363" y2="245.995"/>
			<line fill="none" stroke="#B5B2AF" stroke-miterlimit="10" x1="568.742" y1="213.673" x2="486.48" y2="252.583"/>
			<line fill="none" stroke="#B5B2AF" stroke-miterlimit="10" x1="571.859" y1="220.263" x2="489.597" y2="259.174"/>
			<line fill="none" stroke="#B5B2AF" stroke-miterlimit="10" x1="574.976" y1="226.853" x2="492.713" y2="265.763"/>
			<line fill="none" stroke="#B5B2AF" stroke-miterlimit="10" x1="578.093" y1="233.443" x2="495.831" y2="272.353"/>
			<line fill="none" stroke="#B5B2AF" stroke-miterlimit="10" x1="581.208" y1="240.032" x2="498.948" y2="278.942"/>
			<line fill="none" stroke="#B5B2AF" stroke-miterlimit="10" x1="584.327" y1="246.622" x2="502.065" y2="285.533"/>
			<line fill="none" stroke="#B5B2AF" stroke-miterlimit="10" x1="587.444" y1="253.212" x2="505.181" y2="292.123"/>
			<line fill="none" stroke="#B5B2AF" stroke-miterlimit="10" x1="590.561" y1="259.801" x2="508.298" y2="298.711"/>
			<line fill="none" stroke="#B5B2AF" stroke-miterlimit="10" x1="593.677" y1="266.391" x2="511.416" y2="305.301"/>
			<line fill="none" stroke="#B5B2AF" stroke-miterlimit="10" x1="596.794" y1="272.981" x2="514.533" y2="311.891"/>
			<line fill="none" stroke="#B5B2AF" stroke-miterlimit="10" x1="599.912" y1="279.57" x2="517.65" y2="318.48"/>
			<line fill="none" stroke="#B5B2AF" stroke-miterlimit="10" x1="603.029" y1="286.16" x2="520.766" y2="325.071"/>
			<line fill="none" stroke="#B5B2AF" stroke-miterlimit="10" x1="606.145" y1="292.75" x2="523.883" y2="331.661"/>
			<line fill="none" stroke="#B5B2AF" stroke-miterlimit="10" x1="609.262" y1="299.339" x2="527" y2="338.25"/>
			<line fill="none" stroke="#B5B2AF" stroke-miterlimit="10" x1="612.379" y1="305.929" x2="530.118" y2="344.839"/>
			<line fill="none" stroke="#B5B2AF" stroke-miterlimit="10" x1="615.497" y1="312.519" x2="533.235" y2="351.429"/>
			<line fill="none" stroke="#B5B2AF" stroke-miterlimit="10" x1="618.613" y1="319.109" x2="536.351" y2="358.019"/>
			
				<rect x="460.801" y="249.406" transform="matrix(-0.904 0.4276 -0.4276 -0.904 995.0519 276.5908)" fill="#998177" width="11.332" height="1.25"/>
			
				<rect x="454.744" y="236.601" transform="matrix(-0.904 0.4276 -0.4276 -0.904 978.0436 254.7992)" fill="#998177" width="11.332" height="1.249"/>
			
				<rect x="448.686" y="223.794" transform="matrix(-0.904 0.4276 -0.4276 -0.904 961.0341 233.0059)" fill="#998177" width="11.332" height="1.249"/>
			
				<rect x="478.972" y="287.825" transform="matrix(-0.904 0.4276 -0.4276 -0.904 1046.0797 341.9462)" fill="#998177" width="11.334" height="1.25"/>
			
				<rect x="472.916" y="275.019" transform="matrix(-0.904 0.4276 -0.4276 -0.904 1029.071 320.1772)" fill="#998177" width="11.332" height="1.25"/>
			
				<rect x="466.859" y="262.212" transform="matrix(-0.904 0.4276 -0.4276 -0.904 1012.0615 298.384)" fill="#998177" width="11.332" height="1.25"/>
			
				<rect x="497.145" y="326.243" transform="matrix(-0.904 0.4276 -0.4276 -0.904 1097.1028 407.3681)" fill="#998177" width="11.333" height="1.25"/>
			
				<rect x="491.088" y="313.439" transform="matrix(-0.904 0.4276 -0.4276 -0.904 1080.0967 385.5557)" fill="#998177" width="11.332" height="1.249"/>
			
				<rect x="485.03" y="300.631" transform="matrix(-0.904 0.4276 -0.4276 -0.904 1063.0854 363.7824)" fill="#998177" width="11.333" height="1.25"/>
			
				<rect x="515.318" y="364.663" transform="matrix(-0.904 0.4276 -0.4276 -0.904 1148.1305 472.749)" fill="#998177" width="11.333" height="1.25"/>
			
				<rect x="509.26" y="351.856" transform="matrix(-0.904 0.4276 -0.4276 -0.904 1131.1212 450.9554)" fill="#998177" width="11.333" height="1.25"/>
			
				<rect x="503.203" y="339.051" transform="matrix(-0.904 0.4276 -0.4276 -0.904 1114.1122 429.1627)" fill="#998177" width="11.333" height="1.249"/>
		</g>
	</g>
</g>
</svg>
